<svg width="1137" height="642" viewBox="0 0 1137 642" fill="none" xmlns="http://www.w3.org/2000/svg">
<path fill-rule="evenodd" clip-rule="evenodd" d="M0.999785 595.532C1.24978 595.532 6.76278 596.871 13.2498 598.509C41.4608 605.629 70.5598 609.251 90.0438 608.069C104.844 607.171 112.468 605.991 129.113 602.026C156.006 595.619 174.579 585.022 182.123 571.782C184.261 568.03 184.191 568.038 201.544 569.553C221.292 571.277 238.29 576.453 245.641 582.98C270.286 604.864 296.5 618.862 332.044 629.118L338.044 630.849L333.044 632.25C312.384 638.037 302.329 641.406 305.544 641.463C307.469 641.498 313.994 640.017 320.044 638.173C332.817 634.28 336.544 633.323 336.544 633.936C336.544 634.179 333.971 635.988 330.825 637.955C326.812 640.465 325.738 641.532 327.225 641.532C328.39 641.532 331.709 639.94 334.6 637.994C337.492 636.048 340.296 634.185 340.832 633.854C341.368 633.523 340.634 634.977 339.202 637.085C335.69 642.253 336.929 642.984 341.001 638.147L344.271 634.262L344.953 637.897C345.877 642.825 347.99 642.718 347.222 637.782C346.652 634.113 346.676 634.078 348.342 636.163C349.278 637.336 350.554 639.136 351.177 640.163C351.8 641.191 352.623 641.734 353.007 641.369C353.748 640.663 351.389 636.411 348.325 632.931C346.476 630.831 346.48 630.828 354.259 628.666C377.819 622.117 417.489 614.567 457.517 609.016C467.157 607.679 483.814 605.255 494.533 603.63C505.251 602.005 514.085 600.756 514.163 600.854C514.241 600.952 513.686 603.282 512.931 606.032C512.176 608.782 511.26 612.339 510.895 613.936L510.232 616.84L520.19 616.291C528.545 615.831 531.518 615.176 538.65 612.223C543.326 610.288 549.377 607.331 552.098 605.652C554.818 603.973 558.355 601.86 559.958 600.955C561.561 600.051 566.598 596.435 571.15 592.921C575.703 589.407 580 586.532 580.7 586.532C581.399 586.532 589.188 584.758 598.008 582.59C653.206 569.02 669.681 565.244 689.544 561.609C713.517 557.223 711.835 557.289 716.733 560.534C722.427 564.305 731.572 573.302 736.519 579.998C738.707 582.959 741.385 585.664 742.47 586.009C745.419 586.945 750.078 584.063 751.653 580.329C753.415 576.151 753.172 565.57 751.166 559.111C750.325 556.405 749.868 553.817 750.15 553.361C750.431 552.905 752.998 552.539 755.853 552.548C761.099 552.565 762.699 553.264 772.408 559.782C779.39 564.469 783.535 562.826 785.154 554.73L785.794 551.532H794.697C815.227 551.532 856.713 557.979 877.792 564.444C882.88 566.005 888.501 567.598 890.283 567.984C895.639 569.145 894.817 570.062 886.736 571.939C878.018 573.965 864.521 578.073 860.044 580.062C858.394 580.795 853.669 582.801 849.544 584.519C832.462 591.633 811.317 603.85 793.784 616.736C783.495 624.299 766.734 640.055 767.821 641.142C768.205 641.526 772.462 638.055 777.282 633.427C804.564 607.23 848.707 583.34 887.027 574.033C891.986 572.829 896.21 571.976 896.412 572.139C896.614 572.301 894.489 576.894 891.689 582.344C886.007 593.406 881.476 606.162 879.115 617.74C877.351 626.393 876.988 641.532 878.544 641.532C879.094 641.532 879.544 639.09 879.544 636.104C879.544 629.225 881.222 616.795 883.198 609.032C884.683 603.197 893.546 581.201 894.163 581.818C894.332 581.987 893.594 586.38 892.522 591.579C889.731 605.118 889.067 617.475 890.502 629.192C891.178 634.705 892.114 639.836 892.583 640.595C894.136 643.107 894.627 640.866 893.564 636.121C891.739 627.979 891.268 614.359 892.47 604.532C893.53 595.866 897.753 577.884 899.468 574.738C900.398 573.03 927.333 602.452 935.601 614.207C939.184 619.302 947.073 635.006 947.946 638.782C948.296 640.295 949.024 641.532 949.563 641.532C951.004 641.532 950.811 640.484 947.973 632.901C943.109 619.901 935.02 608.572 915.762 587.782C910.03 581.594 905.594 576.532 905.905 576.532C907.004 576.532 932.133 594.948 938.544 600.452C951.775 611.811 960.566 622.845 965.156 633.857C967.916 640.479 969.132 642.278 970.156 641.253C971.149 640.26 964.017 625.949 959.085 619.037C954.341 612.389 943.116 601.071 935.044 594.795C929.402 590.408 913.511 578.971 909.207 576.199C905.915 574.079 906.195 573.004 909.665 574.445C910.973 574.989 918.569 577.981 926.544 581.095C934.519 584.209 948.857 590.633 958.407 595.37C976.278 604.236 975.308 603.55 997.044 622.671C1005.62 630.212 1017.11 639.645 1019.2 640.853C1019.98 641.304 1021.03 641.529 1021.54 641.353C1022.05 641.176 1018.77 638.041 1014.25 634.385C1005.04 626.927 990.272 614.177 977.545 602.698C967.088 593.266 931.539 558.418 931.556 557.615C931.563 557.295 935.67 556.039 940.683 554.824C961.667 549.742 976.416 538.837 990.008 518.354C991.951 515.427 994.159 512.132 994.916 511.032C999.516 504.348 1021.91 467.635 1025.72 460.532C1036.31 440.815 1046.52 419.632 1048.08 414.146C1049.82 408.051 1049.76 397.34 1047.98 395.581C1047.41 395.017 1044.91 396.177 1041.54 398.579C1036.14 402.426 1018.36 411.649 1013.65 413.048C1011.5 413.687 1011.32 413.517 1011.89 411.396C1012.25 410.096 1013.27 405.483 1014.16 401.145C1016.78 388.408 1015.08 372.532 1011.1 372.532C1010.57 372.532 1006.96 375.819 1003.09 379.837C996.167 387.014 989.199 392.472 974.778 402.012C947.559 420.02 930.266 444.447 924.499 473.033C921.132 489.724 921.015 505.103 924.03 534.532C924.837 542.408 919.717 520.728 918.113 509.476C914.811 486.315 915.127 455.836 919.001 424.032C923.244 389.188 922.595 391.746 931.946 373.032C942.818 351.275 954.938 332.724 961.329 328.059C963.922 326.166 970.094 322.588 975.044 320.109C996.137 309.542 1015.8 305.61 1051.54 304.809L1074.04 304.305L1074.08 318.668C1074.11 332.184 1074.3 333.547 1077.24 341.765C1084.77 362.804 1101.7 380.054 1127.56 393.041C1133.3 395.924 1136.54 397.082 1136.54 396.249C1136.54 395.532 1133.28 393.396 1129.29 391.502C1109.03 381.876 1092.84 367.66 1083.77 351.518C1078.39 341.95 1074.28 321.56 1076.08 313.367C1076.8 310.093 1076.83 310.125 1079.42 317.06C1084.95 331.813 1092.72 341.945 1105.03 350.456C1112.74 355.786 1125.91 361.76 1132.81 363.053C1139.85 364.375 1136.59 361.904 1127.79 359.248C1102.51 351.62 1084.15 332.066 1078.18 306.401C1077.62 304.008 1078.01 303.578 1082.47 301.657C1102.1 293.214 1117.44 297.747 1131.67 316.201C1136.86 322.922 1138.2 321.55 1133.15 314.681C1128.2 307.929 1121.67 302.141 1115.38 298.924C1107.88 295.083 1096.49 294.459 1088.08 297.427C1084.8 298.585 1081.72 299.532 1081.23 299.532C1079.61 299.532 1088.87 292.403 1093.98 289.712C1098.37 287.405 1100.24 287.049 1108.04 287.041C1116.69 287.032 1117.39 287.205 1126.04 291.492C1130.99 293.945 1135.44 296.139 1135.92 296.367C1136.4 296.595 1136.59 296.179 1136.35 295.443C1135.62 293.252 1122.79 286.858 1116.41 285.504C1103.08 282.676 1092.52 286.009 1081.08 296.653L1075.04 302.274L1050.04 302.797C1011.6 303.603 986.811 309.344 966.957 322.044L961.465 325.558L963.755 322.313C969.148 314.669 980.755 301.283 990.528 291.436C1006.21 275.63 1015.03 268.509 1035.54 255.095C1053.75 243.185 1057.86 240.391 1065.25 234.87C1069.21 231.91 1072.7 229.088 1073 228.598C1073.31 228.108 1079.74 227.742 1087.3 227.785C1098.61 227.85 1102.46 227.469 1109.04 225.639C1121.54 222.165 1136.54 214.365 1136.54 211.344C1136.54 210.771 1135.44 211.028 1134.08 211.914C1120.35 220.915 1105.28 225.771 1092.47 225.325L1084.04 225.032L1092.09 222.267C1103.52 218.341 1111.84 213.165 1120.62 204.532C1128.73 196.542 1136.57 185.467 1136.5 182.083C1136.47 180.381 1136.17 180.549 1134.75 183.074C1127.16 196.599 1115.1 208.782 1102.95 215.216C1094.33 219.778 1077.7 225.088 1076.33 223.716C1075.2 222.592 1077.06 203.236 1079.06 195.27C1085.77 168.508 1106.14 135.794 1128.94 115.152C1133.12 111.368 1136.54 107.865 1136.54 107.367C1136.54 103.474 1113.33 127.031 1102.88 141.532C1093.28 154.862 1084.82 171.113 1079.48 186.532C1077.09 193.43 1073.59 209.892 1073.53 214.532C1073.46 219.989 1071.97 216.191 1070.67 207.241C1068.39 191.465 1069.84 167.186 1074.03 151.032C1081.28 123.102 1090.32 105.33 1115.81 68.899C1128.2 51.192 1136.55 36.933 1136.54 33.48C1136.53 31.805 1134.71 34.347 1130.75 41.532C1127.58 47.307 1121.25 57.432 1116.7 64.032C1090.08 102.619 1084.57 112.191 1077.65 131.852C1066.42 163.78 1064.19 199.262 1072.02 221.459L1073.46 225.533L1067.65 230.282C1060.74 235.946 1056.28 239.056 1034.46 253.434C1002.38 274.585 982.972 293.007 959.436 324.665C947.044 341.333 941.129 350.709 930.815 370.032C927.293 376.632 924.625 380.907 924.887 379.532C925.148 378.157 925.933 370.732 926.63 363.032L927.897 349.032L933.517 341.032C938.864 333.422 949.544 315.513 949.544 314.157C949.544 312.889 961.848 291.813 968.007 282.532C977.606 268.067 978.189 266.33 974.552 263.039C971.33 260.123 962.005 260.835 949.109 264.98C943.095 266.913 937.975 268.296 937.732 268.053C937.036 267.358 941.431 250.072 945.226 238.579C948.829 227.669 952.215 218.729 963.806 189.532C967.627 179.907 972.034 168.432 973.599 164.032C975.165 159.632 978.748 149.732 981.563 142.032C984.378 134.332 988.175 123.757 990.002 118.532C998.598 93.949 1008.39 72.333 1021.03 50.032C1028.58 36.707 1043.97 6.94506 1045.01 3.66406C1046.54 -1.21894 1043.17 2.17302 1040.6 8.09302C1037.65 14.886 1030.95 27.671 1017.59 52.032C1002.37 79.793 998.471 88.876 980.905 137.532C978.423 144.407 975.709 151.944 974.874 154.282C974.039 156.619 973.286 158.532 973.2 158.531C973.114 158.53 973.02 147.618 972.992 134.281C972.947 113.524 972.625 108.448 970.757 99.032C967.729 83.772 963.448 70.8911 957.242 58.3651L951.957 47.6981L962.363 41.434C974.974 33.843 977.077 32.204 976.144 30.694C975.749 30.055 973.315 29.528 970.735 29.524C966.072 29.516 951.051 26.3731 949.827 25.1481C949.474 24.7961 950.157 22.15 951.345 19.27C954.799 10.887 957.593 2.24706 957.03 1.68506C956.077 0.732059 954.881 2.97304 952.575 10.032C949.887 18.263 946.656 24.977 945.797 24.118C945.463 23.784 945.303 18.5651 945.443 12.5211C945.763 -1.34194 943.989 -2.15894 943.329 11.5471C943.064 17.0561 942.587 21.822 942.27 22.139C941.449 22.96 922.721 13.722 911.821 7.11902C902.613 1.54102 895.477 -0.91595 902.659 3.96405C911.054 9.66905 937.025 23.4721 942.207 24.9841C942.557 25.0861 940.77 33.64 940.301 34.108C939.565 34.844 919.448 26.0741 908.599 20.2861C899.87 15.6301 887.815 7.72203 883.044 3.52203C881.944 2.55403 879.919 1.42402 878.544 1.01202C876.69 0.456024 877.335 1.33802 881.044 4.42902C892.633 14.087 909.967 24.242 928.483 32.22L934.044 34.6171L925.044 34.028C891.221 31.818 863.693 21.9081 846.279 5.67206C843.658 3.22906 841.183 1.57104 840.779 1.98804C839.547 3.26004 851.506 13.2671 861.044 18.9451C877.525 28.7571 901.495 34.9861 927.544 36.2271L940.044 36.822L943.794 40.843C945.857 43.055 947.544 45.453 947.544 46.173C947.544 47.957 943.832 49.7371 931.513 53.8621C917.855 58.4351 904.617 60.5771 889.927 60.5911C877.473 60.6041 873.188 60.014 860.044 56.476C837.744 50.474 836.258 50.2191 823.544 50.2271C809.922 50.2361 808.231 50.592 776.544 60.124C762.984 64.203 759.572 64.849 749.288 65.283C738.977 65.718 736.67 65.5021 730.515 63.5231C726.656 62.2821 723.257 60.876 722.962 60.399C722.667 59.922 724.815 59.527 727.735 59.52C743.273 59.485 755.236 52.4191 783.671 26.4821C798.999 12.4991 807.285 6.99804 818.344 3.46204L824.044 1.64001L819.867 1.58606C816.956 1.54806 813.637 2.60204 808.92 5.06104C800.117 9.64903 795.008 13.568 777.505 29.16C759.861 44.877 755.043 48.4441 745.021 53.2031C738.424 56.3361 735.913 56.9761 728.746 57.3521L720.272 57.7971L720.986 53.915C723.218 41.786 733.914 15.702 740.723 5.78204C742.574 3.08504 743.16 1.53204 742.326 1.53204C738.197 1.53204 722.827 34.847 719.997 49.929C719.61 51.993 718.938 53.3101 718.503 52.8571C716.101 50.3521 713.613 14.797 715.177 5.33405C715.754 1.84805 716.026 1.61306 719.916 1.25806L724.044 0.881042L719.269 0.707031C714.919 0.548031 714.398 0.776043 713.409 3.28204C711.716 7.56904 713.089 40.152 715.394 50.408L717.277 58.783L711.817 66.392C692.596 93.182 680.276 124.858 669.561 175.032C661.881 210.999 657.453 239.724 657.33 254.379C657.248 264.043 657.119 264.753 655.937 262.032C655.221 260.382 654.614 258.403 654.589 257.635C654.564 256.867 653.003 251.017 651.12 244.635C647.353 231.872 640.045 198.875 636.148 177.032C629.808 141.502 625.32 127.602 607.216 87.413L604.685 81.7941L610.981 81.149C631.415 79.055 653.835 65.379 673.611 42.944C682.724 32.606 693.544 11.3991 693.544 3.87506C693.544 -0.543939 691.986 1.53504 690.243 8.28204C683.158 35.703 653.832 65.7731 624.633 75.5551C614.476 78.9581 611.885 78.9211 618.697 75.4691C624.526 72.5161 633.818 65.048 640.57 57.89C651.257 46.562 658.366 35.016 664.935 18.316C669.423 6.90804 670.579 1.53204 668.544 1.53204C667.994 1.53204 667.544 2.20003 667.544 3.01703C667.544 3.83403 666.166 8.67103 664.481 13.767C655.391 41.266 634.385 66.475 612.162 76.551C608.546 78.191 605.353 79.532 605.066 79.532C603.618 79.532 605.993 55.014 608.602 43.032C613.093 22.409 615.944 12.5891 619.419 5.77606C621.317 2.05606 621.947 1.61001 625.785 1.26501C629.885 0.896015 629.848 0.875031 624.814 0.707031C619.714 0.536031 619.538 0.624043 617.68 4.28204C613.052 13.393 607.376 35.489 604.962 53.795C602.55 72.081 602.444 72.765 602.067 72.384C601.876 72.19 600.953 66.632 600.015 60.032C598.072 46.356 597.626 12.645 599.297 5.78204C600.115 2.42004 600.058 1.53204 599.023 1.53204C596.156 1.53204 595.19 35.505 597.477 55.928C598.087 61.371 598.419 65.9911 598.215 66.1951C598.011 66.3991 595.702 61.0451 593.083 54.2991C581.942 25.5911 570.898 1.62805 568.78 1.56805C567.957 1.54505 568.525 3.54104 570.405 7.28204C574.816 16.056 579.293 25.821 581.61 31.715C582.76 34.639 584.309 38.382 585.052 40.032C588.297 47.232 599.477 75.932 599.16 76.249C598.696 76.713 584.128 64.9751 578.967 59.9791C576.724 57.8081 571.444 51.6851 567.232 46.3721C551.682 26.7571 544.396 22.7121 496.335 7.01306C488.245 4.37006 481.859 1.83106 482.144 1.37006C482.804 0.303056 479.455 0.302042 477.775 1.36804C476.251 2.33504 486.263 6.23503 509.044 13.548C543.442 24.591 551.834 29.965 569.261 52.11C571.892 55.452 577.732 61.5141 582.239 65.5811C586.747 69.6481 590.259 73.1501 590.045 73.3651C589.546 73.8631 572.934 64.873 569.265 62.118C567.736 60.971 563.911 57.9831 560.765 55.4791C547.627 45.0251 543.672 42.971 529.158 39.072C519.902 36.585 508.479 35.139 489.544 34.056C483.769 33.726 477.872 33.227 476.439 32.946C473.895 32.449 468.225 25.9191 455.044 8.30505C452.294 4.63005 449.451 1.60306 448.726 1.57806C447.362 1.53006 449.18 4.54604 454.729 11.532C466.899 26.856 470.619 31.79 470.268 32.142C469.542 32.868 456.383 29.9061 440.908 25.5341C424.97 21.0311 421.5 20.8771 419.515 24.5861C418.259 26.9331 420.281 29.194 431.985 38.532C435.776 41.557 442.073 46.732 445.978 50.032C453.772 56.619 455.508 57.9581 466.544 65.8981C486.393 80.1791 509.387 90.918 531.044 96.022C537.7 97.591 553.345 98.328 561.684 97.465C572.257 96.371 585.494 91.978 594.705 86.506C598.384 84.32 601.658 82.532 601.981 82.532C602.305 82.532 603.629 84.894 604.923 87.782C606.218 90.669 608.405 95.507 609.783 98.532C621.651 124.576 626.604 140.064 632.492 169.532C635.184 183.007 637.926 197.182 638.585 201.032C640.468 212.029 646.968 238.553 651.946 255.559C662.722 292.373 676.436 325.323 693.347 355.032C704.067 373.865 717.29 391.406 731.984 406.282C737.009 411.369 740.927 415.532 740.69 415.532C740.454 415.532 737.286 413.652 733.652 411.355C730.018 409.058 722.319 404.407 716.544 401.019C700.408 391.554 675.18 375.035 648.374 356.381L639.703 350.347L642.175 343.78C646.271 332.897 647.839 317.894 647.217 295.532C646.617 273.992 645.3 265.75 640.566 253.928C635.684 241.736 629.384 233.531 604.561 207.032C595.161 196.997 586.75 186.617 578.534 174.91C562.121 151.525 544.648 138.451 531.482 139.705C528.094 140.027 528.04 140.108 527.744 145.216C527.571 148.212 528.714 156.653 530.453 165.216C534.784 186.542 536.573 200.532 534.97 200.532C534.277 200.532 533.561 200.185 533.377 199.761C533.194 199.338 529.788 196.525 525.808 193.511C509.338 181.04 501.08 177.397 487.8 176.747C480.424 176.386 478.059 176.62 476.096 177.906C473.718 179.464 473.68 179.666 474.965 183.937C475.697 186.368 479.501 194.497 483.42 202.002C487.338 209.507 490.544 216.38 490.544 217.276C490.544 218.171 489.71 219.832 488.691 220.968C487.671 222.103 483.146 228.498 478.635 235.18C469.77 248.309 463.099 256.424 463.96 253.032C466.538 242.874 467.255 220.17 465.157 215.149C463.729 211.731 458.843 207.532 456.295 207.532C453.406 207.532 451.495 211.479 445.121 230.612C441.547 241.34 436.545 255.048 434.006 261.075C427.263 277.075 425.757 281.485 424.599 288.621C422.216 303.312 424.284 318.305 430.313 330.032C434.63 338.428 448.316 352.538 456.916 357.459C460.011 359.23 462.544 360.858 462.544 361.077C462.544 361.955 444.575 355.062 437.544 351.487C410.905 337.942 383.291 313.87 362.857 286.379C357.4 279.038 350.888 269.432 348.386 265.032C345.884 260.632 342.661 254.953 341.224 252.411C335.994 243.162 324.518 212.224 325.831 210.912C325.974 210.769 328.33 212.06 331.067 213.781C343.594 221.657 361.685 224.661 375.413 221.144C386.579 218.284 392.393 213.855 415.044 190.964C437.188 168.583 442.455 164.052 451.048 159.987C453.964 158.607 456.573 156.899 456.844 156.192C458.887 150.869 450.998 142.679 440.792 139.527C437.24 138.43 433.706 137.532 432.939 137.532C430.711 137.532 431.32 136.219 434.795 133.532C439.938 129.555 442.544 126.737 442.544 125.154C442.544 122.456 437.539 117.696 432.766 115.854C426.291 113.356 406.02 113.434 396.044 115.995C374.538 121.518 358.42 136.692 342.348 166.547C338.02 174.586 332.127 183.742 333.026 181.032C334.193 177.512 338.309 159.284 339.686 151.532C341.456 141.573 341.464 101.47 339.699 87.532C337.059 66.69 333.547 46.765 330.093 33.032C326.189 17.511 320.776 1.53204 319.421 1.53204C318.09 1.53204 318.293 2.46205 321.622 11.584C327.935 28.882 334.066 58.184 337.093 85.532C339.642 108.552 339.45 139.508 336.664 155.032C334.211 168.694 327.281 193.952 326.735 191.22C326.536 190.223 326.862 184.918 327.459 179.43C329.002 165.241 328.801 142.597 327.01 128.936C324.066 106.474 315.167 74.407 304.282 47.032C298.865 33.409 285.599 6.35502 282.842 3.30902C280.027 0.198021 279.265 1.39704 281.59 5.28204C299.624 35.432 315.896 79.602 323.125 118.032C327.459 141.076 327.487 169.483 323.201 196.26L322.044 203.487L310.218 190.014C284.975 161.257 276.338 147.571 268.623 124.109C263.585 108.786 263.245 107.41 259.593 87.532C255.391 64.663 253.839 40.308 255.419 22.032C256.084 14.332 256.886 6.57004 257.2 4.78204C257.9 0.797044 256.027 0.366017 255.234 4.33002C254.926 5.87002 254.112 13.753 253.424 21.848C251.447 45.115 253.837 73.482 260.121 101.324C268.358 137.826 277.631 155.745 303.957 186.032C307.781 190.432 312.065 195.365 313.477 196.994C316.587 200.582 315.88 200.099 302.544 189.522C296.769 184.941 286.191 175.307 279.036 168.113C265.945 154.947 258.997 145.191 250.136 127.532C244.226 115.752 234.386 88.681 230.69 74.032C224.771 50.569 223.245 39.702 223.143 20.283C223.088 9.97102 222.765 1.53302 222.425 1.53302C220.138 1.52902 219.951 25.584 222.109 42.074C224.899 63.387 233.762 95.314 242.519 115.597C258.652 152.961 271.52 168.05 318.155 204.286C321.564 206.935 322.562 208.55 324 213.756C328.028 228.336 330.153 233.853 337.584 249.032C351.954 278.386 370.315 302.594 393.947 323.343C406.149 334.056 412.958 339.317 422.044 345.047C429.075 349.482 449.258 359.532 451.133 359.532C451.844 359.532 452.644 359.886 452.912 360.318C453.179 360.75 444.093 359.872 432.721 358.368C421.348 356.864 411.482 355.61 410.794 355.582C410.019 355.551 409.544 354.068 409.544 351.681C409.544 346.315 407.824 341.946 404.978 340.081C402.864 338.696 402.145 338.672 399.232 339.889C397.401 340.654 393.632 343.587 390.856 346.407C386.578 350.753 385.369 351.46 382.926 351.046C381.341 350.777 374.48 349.635 367.679 348.509C360.879 347.383 353.184 346.005 350.579 345.446L345.843 344.43L345.219 332.231C344.481 317.78 342.654 310.3 338.911 306.393C333.395 300.635 330.58 302.435 321.379 317.605C317.345 324.257 312.887 331.087 311.473 332.782L308.902 335.865L301.973 334.158C282.87 329.45 207.517 304.295 204.271 301.542C203.846 301.182 206.05 300.819 209.169 300.737C225.178 300.316 239.82 292.118 258.238 273.264C270.873 260.33 274.531 258.132 287.351 255.778C296.456 254.106 297.727 252.987 295.09 248.961C292.141 244.461 279.132 240.365 263.294 238.949C259.031 238.568 255.544 237.889 255.544 237.441C255.544 236.084 262.677 230.82 269.044 227.478C272.344 225.746 275.719 223.671 276.544 222.866C277.874 221.569 277.778 221.185 275.699 219.481C272.307 216.699 265.848 215.241 260.069 215.952C257.305 216.292 248.969 217.651 241.544 218.971C234.119 220.291 223.727 222.07 218.45 222.926C199.731 225.96 192.097 230.802 186.353 243.284C183.564 249.345 183.201 251.253 182.791 262.032C182.341 273.865 182.671 276.25 186.461 288.532L187.541 292.032L183.585 287.532C181.409 285.057 179.61 282.729 179.587 282.359C179.563 281.988 178.493 280.413 177.208 278.859C172.98 273.742 166.463 260.228 162.471 248.299C158.137 235.35 157.864 233.203 160.003 228.915C164.245 220.412 166.76 181.763 164.648 157.532C163.398 143.197 161.076 126.997 159.559 122.032C159.055 120.382 157.467 114.532 156.031 109.032C147.903 77.9 131.758 52.095 111.828 38.384C105.66 34.14 74.1318 19.0691 62.5438 14.8251C51.5638 10.8031 40.2698 9.49905 33.9578 11.524C28.9798 13.121 23.5438 17.153 23.5438 19.248C23.5438 20.137 26.0188 25.498 29.0438 31.163C32.0688 36.827 34.5438 41.869 34.5438 42.366C34.5438 42.863 31.9558 42.6491 28.7938 41.8911C20.7058 39.9511 0.543785 38.872 0.543785 40.379C0.543785 41.132 2.80478 41.532 7.05478 41.532C13.9378 41.532 30.8818 43.95 35.0178 45.522C36.5148 46.091 38.5128 48.5111 40.1438 51.7291C41.6138 54.6301 43.8048 58.5851 45.0118 60.5181C49.8268 68.2251 56.0148 83.5881 65.4008 111.138C79.6648 153.006 86.4918 169.035 97.2028 185.807C108.221 203.058 120.187 214.667 136.863 224.282C146.739 229.976 146.519 230.694 135.899 227.417C119.877 222.472 105.105 213.075 90.4958 198.532C75.8158 183.92 62.9548 166.157 44.5198 135.032C38.7678 125.322 38.0198 124.111 28.4538 109.032C24.9648 103.532 21.8618 98.807 21.5588 98.532C21.2548 98.257 18.5928 95.107 15.6418 91.532C8.29878 82.637 1.85978 75.532 1.14078 75.532C-0.568215 75.532 1.29178 78.296 8.54178 86.53C12.9408 91.526 18.2928 97.957 20.4338 100.822C24.4058 106.137 42.5438 135.108 42.5438 136.138C42.5438 136.45 43.8238 138.579 45.3888 140.869C46.9538 143.158 50.8738 149.307 54.0998 154.532C57.3258 159.757 62.6828 167.797 66.0048 172.399C69.3258 177 73.0798 182.314 74.3458 184.208C77.7698 189.328 97.1638 208.493 104.044 213.555C116.78 222.926 136.802 231.3 151.509 233.407C155.575 233.99 156.055 234.358 156.889 237.539C159.391 247.089 164.223 259.933 168.296 267.866C172.723 276.485 181.67 289.251 185.777 292.807C186.905 293.783 187.607 294.802 187.338 295.071C187.069 295.341 182.393 293.937 176.946 291.953C127.534 273.952 73.5318 257.9 47.5438 253.49C43.4188 252.79 39.3498 251.872 38.5028 251.451C37.6548 251.03 36.3778 248.288 35.6658 245.358C33.0248 234.501 29.2578 222.902 26.7948 218.039C20.1658 204.951 1.19278 175.657 0.746785 177.82C0.582785 178.613 2.97978 183.036 6.07378 187.647C12.8188 197.702 22.2818 213.498 24.8768 219.032C27.4788 224.582 32.1568 238.316 32.8808 242.532L33.4828 246.032L29.7628 241.532C22.9238 233.258 14.0968 224.338 8.54378 220.091C1.33578 214.579 0.543785 214.146 0.545785 215.723C0.546785 216.443 2.50378 218.268 4.89578 219.779C11.9648 224.245 28.6128 241.975 33.0028 249.714L34.5248 252.395L28.7838 254.556C21.3068 257.371 11.2548 259.493 5.29378 259.515C2.68178 259.524 0.543785 259.982 0.543785 260.532C0.543785 262.815 22.4138 260.277 27.8598 257.363C31.8768 255.213 30.3478 257.527 24.8418 261.931C19.1968 266.446 4.43478 274.532 1.83778 274.532C1.12578 274.532 0.543785 275.164 0.543785 275.936C0.543785 279.594 20.5928 268.841 30.3118 259.971L37.1138 253.763L42.0788 254.569C48.4508 255.603 71.8328 260.872 81.5438 263.462C105.12 269.75 151.019 284.218 162.544 288.994C164.469 289.792 175.044 293.678 186.044 297.629C197.044 301.58 210.994 306.61 217.044 308.806C237.106 316.088 279.892 330.275 290.044 333.011C302.938 336.486 307.083 337.933 306.879 338.886C306.68 339.822 287.557 365.787 272.803 385.155C266.885 392.922 260.033 403.188 257.576 407.969L253.108 416.66L248.576 416.132C246.083 415.842 238.532 415.054 231.794 414.382C219.961 413.201 219.544 413.08 219.544 410.817C219.544 408.323 214.461 392.162 212.47 388.323C208.205 380.103 200.149 370.033 187.036 356.532C170.004 338.995 168.872 337.619 157.766 320.954C149.733 308.899 145.969 305.033 143.657 306.462C142.135 307.403 142.024 330.478 143.488 341.532C145.05 353.315 145.125 352.979 141.4 350.839C139.67 349.845 131.329 342.395 122.863 334.282C111.548 323.439 106.819 319.532 105.008 319.532C103.031 319.532 102.544 320.038 102.544 322.092C102.544 328.438 108.042 348.894 118.633 381.956C119.676 385.214 120.308 388.101 120.036 388.373C119.543 388.866 117.47 388.25 108.044 384.811C100.963 382.227 100.853 382.117 99.0338 375.764C96.0458 365.332 87.5758 352.304 77.2978 342.334C64.0218 329.455 47.3568 324.176 27.5698 326.582C17.2208 327.841 1.37778 332.529 0.710785 334.531C0.399785 335.464 0.822785 335.637 2.15778 335.12C17.8058 329.063 38.0148 326.923 50.9408 329.954C67.0338 333.728 81.6968 346.144 91.7728 364.532C97.7318 375.406 97.4458 376.396 90.3838 369.342C79.3078 358.277 65.1828 350.103 52.5478 347.444C44.2828 345.705 29.4798 346.824 21.0438 349.825C12.4798 352.872 0.543785 359.458 0.543785 361.137C0.543785 361.84 4.51178 360.213 9.78478 357.348C35.0128 343.64 57.0248 345.76 81.6478 364.269C87.0888 368.359 98.5438 380.788 98.5438 382.602C98.5438 382.976 92.8058 383.833 85.7938 384.506C70.7388 385.951 62.6538 385.231 34.3808 379.929C15.6798 376.422 1.45478 374.442 0.572785 375.224C-0.285215 375.983 3.00178 377.501 5.54378 377.519C6.91878 377.528 19.5188 379.585 33.5438 382.09C60.4548 386.895 77.1248 388.366 86.7558 386.785C89.8968 386.269 92.2608 386.18 92.0098 386.588C91.1988 387.9 74.8018 394.376 68.3228 395.943C60.8358 397.754 54.8188 398.784 35.5438 401.556C12.3598 404.89 -1.24222 408.144 0.610785 409.912C0.848785 410.14 4.29678 409.495 8.27278 408.479C12.2478 407.464 19.2228 406.14 23.7728 405.537C37.4838 403.721 61.5938 399.64 69.0438 397.875C76.6598 396.071 89.4718 390.912 96.4358 386.846L100.828 384.282L105.936 386.319C108.745 387.44 113.322 389.079 116.106 389.962L121.167 391.568L123.49 400.8C127.403 416.355 133.345 433.906 137.668 442.68C148.945 465.569 163.414 486.537 177.977 501.094C184.242 507.357 190.732 514.949 192.935 518.594C204.464 537.67 215.555 552.415 228.483 565.854C237.58 575.312 237.539 575.486 227.072 571.846C221.549 569.925 207.061 567.758 194.294 566.944C185.102 566.358 183.544 566.012 183.544 564.555C183.544 557.804 170.01 541.101 158.639 533.82C147.224 526.51 118.418 514.333 102.4 510.046C81.9988 504.587 66.0178 504.626 37.0438 510.206C29.8938 511.583 18.7568 512.956 12.2938 513.258C2.99578 513.692 0.543785 514.107 0.543785 515.244C0.543785 516.44 2.09978 516.567 9.79378 516C14.8818 515.625 23.9938 514.456 30.0438 513.403C72.7638 505.968 91.2668 506.918 119.785 518.015C152.031 530.562 166.265 539.419 175.622 552.759C177.896 556.001 179.577 558.832 179.357 559.052C179.138 559.272 177.177 557.865 175.001 555.927C168.176 549.847 157.739 544.805 145.391 541.622C122.625 535.752 88.1388 533.613 70.2618 536.963C59.4128 538.996 47.7688 543.056 33.9328 549.631L23.3218 554.673L15.1828 549.922C4.23278 543.529 1.52878 542.213 0.814785 542.928C0.482785 543.26 0.397785 543.671 0.626785 543.84C2.24978 545.041 15.5738 552.636 17.7938 553.626C19.3058 554.301 20.5438 555.183 20.5438 555.586C20.5438 556.432 20.7068 556.354 9.57878 560.88C4.92278 562.773 0.931785 564.867 0.710785 565.532C0.192785 567.085 2.42878 566.393 14.0438 561.403C18.9938 559.277 23.3808 557.536 23.7928 557.534C24.2048 557.533 28.7048 559.598 33.7928 562.123C66.7378 578.472 101.462 586.442 134.544 585.248C151.97 584.619 160.708 582.75 171.176 577.415L179.044 573.404L174.544 578.036C169.413 583.316 158.114 590.697 151.513 593.079C123.532 603.176 94.9588 607.42 67.9488 605.49C52.2508 604.368 30.4408 600.726 14.5438 596.572C1.87178 593.261 0.543785 593.067 0.543785 594.532C0.543785 595.082 0.748785 595.532 0.999785 595.532ZM31.6218 31.9841C34.8998 38.0081 38.1068 43.262 38.7508 43.66C39.3938 44.058 45.1238 45.5831 51.4818 47.0491C70.4388 51.4211 79.4298 55.406 91.5438 64.806C111.864 80.572 128.769 105.738 141.952 139.848C151.506 164.567 158.522 196.435 158.559 215.275C158.578 224.933 159.887 223.409 161.717 211.598C163.411 200.665 163.423 160.415 161.736 147.532C155.803 102.206 141.046 66.9 119.99 47.657C110.417 38.907 105.122 35.912 75.0438 22.235C54.0608 12.694 40.0838 10.55 30.2938 15.371C27.3878 16.802 25.5668 18.355 25.6038 19.371C25.6368 20.285 28.3448 25.9611 31.6218 31.9841ZM35.2938 560.629C65.9838 575.071 92.2568 581.948 121.405 583.169C146.091 584.203 163.772 580.656 175.794 572.259C178.956 570.05 181.541 567.97 181.537 567.637C181.506 564.747 173.678 556.872 165.872 551.879C151.719 542.825 119.752 536.997 88.5438 537.783C71.8508 538.203 70.5068 538.39 59.3908 541.852C48.6008 545.211 26.5438 554.683 26.5438 555.957C26.5438 556.262 30.4818 558.365 35.2938 560.629ZM41.4498 50.082C43.7488 52.492 55.7388 76.969 58.5698 85.032C63.0888 97.903 71.4538 122.277 73.0928 127.349C84.7378 163.377 102.419 194.757 119.223 209.222C130.286 218.744 145.774 228.046 154.009 230.113L156.837 230.822L156.275 214.927C155.671 197.815 153.871 187.102 147.976 165.532C132.642 109.423 104.124 68.701 70.4098 54.772C61.3858 51.043 40.5438 46.308 40.5438 47.986C40.5438 48.616 40.9518 49.56 41.4498 50.082ZM105.17 326.032C105.386 327.132 106.038 330.507 106.618 333.532C107.474 337.999 113.579 358.869 121.97 386.021L123.203 390.009L135.066 393.744C141.591 395.799 147.122 397.287 147.357 397.052C147.593 396.816 147.281 388.164 146.665 377.823C146.048 367.483 145.544 358.312 145.544 357.444C145.544 356.575 142.956 354.108 139.794 351.962C136.632 349.816 127.862 342.091 120.307 334.796C112.752 327.501 106.114 321.532 105.557 321.532C104.532 321.532 104.456 322.409 105.17 326.032ZM124.264 396.032C127.46 409.134 134.478 430.478 138.294 438.706C148.23 460.127 163.103 482.839 175.717 495.854C182.027 502.364 182.148 502.164 176.896 493.901C165.692 476.275 151.796 436.728 149.508 415.958C148.166 403.774 147.552 399.532 147.129 399.532C146.596 399.532 127.19 393.717 125.294 392.99C123.503 392.302 123.417 392.559 124.264 396.032ZM145.924 343.856C146.83 352.521 147.418 354.882 148.872 355.696C152.93 357.966 167.426 368.138 173.078 372.681C183.548 381.096 193.505 394.199 197.067 404.25C199.086 409.947 198.972 409.892 213.337 412.071L217.63 412.722L217.011 409.877C212.426 388.808 207.563 380.934 183.951 356.345C171.669 343.555 165.435 336.134 159.782 327.571C150.789 313.947 146.715 308.532 145.46 308.532C144.228 308.532 144.515 330.378 145.924 343.856ZM148.945 381.209C149.55 390.106 150.349 397.686 150.721 398.053C151.629 398.947 179.43 405.973 188.408 407.577C192.339 408.28 195.823 408.586 196.151 408.258C197.129 407.28 189.399 393.142 184.363 386.697C180.208 381.38 162.013 365.532 160.064 365.532C159.65 365.532 157.227 364.029 154.678 362.191C152.129 360.353 149.482 358.527 148.794 358.132C147.345 357.299 147.347 357.677 148.945 381.209ZM152.021 419.032C154.875 436.879 162.64 460.42 172.344 480.64C178.77 494.031 189.15 509.837 189.954 507.455C195.213 491.88 199.516 467.986 201.105 445.532C201.784 435.95 199.471 414.104 197.573 412.175C197.11 411.704 189.601 409.816 180.887 407.979C172.173 406.143 162.119 403.722 158.544 402.599C154.969 401.476 151.706 400.552 151.294 400.545C150.19 400.526 150.558 409.88 152.021 419.032ZM186.073 279.032C188.594 290.413 189.161 290.703 189.853 280.959C190.917 265.979 196.65 251.953 205.345 243.056C214.14 234.057 222.975 232.176 241.401 235.382L252.757 237.359L255.556 234.171C257.096 232.418 261.998 228.976 266.45 226.522C270.902 224.068 274.544 221.789 274.544 221.457C274.544 221.125 273.398 220.331 271.997 219.693C268.121 217.926 256.851 218.302 245.368 220.58C239.69 221.706 229.305 223.513 222.29 224.595C215.276 225.677 207.161 227.452 204.258 228.538C198.616 230.649 191.927 236.713 189.153 242.232C184.79 250.911 183.434 267.115 186.073 279.032ZM195.18 518.032C203.677 532.349 216.904 550.492 226.895 561.532C232.23 567.427 232.889 567.574 230.6 562.358C221.813 542.334 223.302 500.592 234.038 466.032C237.428 455.118 247.966 427.803 251.164 421.638C251.881 420.255 252.332 418.986 252.164 418.819C251.997 418.652 247.177 418.074 241.452 417.534C235.728 416.995 228.569 416.279 225.544 415.944L220.044 415.335L219.809 425.33C219.358 444.508 210.2 474.716 197.163 500.023C194.073 506.023 191.561 511.179 191.582 511.482C191.602 511.784 193.221 514.732 195.18 518.032ZM192.454 294.032C193.206 297.477 193.469 297.486 204.044 294.421C219.963 289.806 233.963 276.446 242.627 257.598C244.506 253.51 247.213 247.771 248.641 244.846L251.237 239.527L247.641 238.59C245.663 238.075 240.312 237.122 235.75 236.471C214.166 233.395 202.082 242.603 194.04 268.253C192.299 273.803 191.363 289.031 192.454 294.032ZM198.675 492.15C203.105 483.563 211.25 460.865 214.096 449.174C216.953 437.44 218.942 421.622 218.064 417.624C217.494 415.029 216.98 414.792 209.401 413.632C204.97 412.953 201.114 412.629 200.832 412.911C200.549 413.193 200.932 415.811 201.681 418.728C204.018 427.823 203.289 454.186 200.194 472.532C198.755 481.057 197.121 489.604 196.561 491.525C194.716 497.863 195.594 498.122 198.675 492.15ZM201.928 299.12C204.887 300.265 217.773 297.854 226.327 294.555C236.289 290.714 243.388 285.411 256.943 271.687C269.643 258.828 275.442 255.29 286.394 253.72C290.436 253.14 293.996 252.414 294.304 252.105C295.469 250.941 291.076 247.501 285.998 245.601C283.097 244.515 275.621 242.92 269.384 242.056C263.147 241.191 257.05 240.336 255.836 240.155C253.938 239.872 252.969 241.175 248.941 249.429C246.363 254.711 243.768 260.157 243.173 261.532C236.574 276.794 221.31 290.838 205.044 296.615C201.057 298.031 200.426 298.538 201.928 299.12ZM229.079 549.532C230.526 556.361 233.931 565.649 236.23 569.032C237.454 570.832 237.512 570.683 236.817 567.532C236.392 565.607 236.076 557.732 236.115 550.032C236.192 534.731 237.319 528.99 244.036 509.695C249.753 493.27 258.483 476.249 268.482 462.032C275.801 451.625 291.076 431.777 296.698 425.367C299.913 421.701 302.544 418.547 302.544 418.358C302.544 418.169 297.707 418.355 291.794 418.771C285.881 419.188 275.162 419.254 267.973 418.919L254.902 418.31L252.095 424.671C239.142 454.024 231.738 477.669 229.027 498.333C227.168 512.501 227.197 540.642 229.079 549.532ZM239.423 568.532C240.713 573.337 241.598 574.997 242.818 574.9C246.574 574.598 253.604 569.174 259.111 562.329C269.228 549.753 281.725 535.377 290.342 526.405C294.905 521.653 300.457 515.35 302.678 512.399C321.816 486.967 339.148 452.461 343.548 431.032C345.864 419.754 346.441 411.96 344.94 412.233C335.412 413.971 318.535 416.558 313.247 417.09C306.8 417.74 306.228 418.013 302.118 422.403C292.838 432.317 276.16 453.994 266.649 468.503C253.998 487.803 242.432 515.766 239.029 535.277C237.068 546.522 237.232 560.37 239.423 568.532ZM249.637 583.544C252.611 585.997 255.269 588.253 255.544 588.556C256.512 589.623 270.112 599.213 275.838 602.867C284.87 608.629 302.464 617.226 313.241 621.142C322.71 624.583 340.373 629.036 341.214 628.195C341.44 627.969 340.716 626.242 339.604 624.358C337.015 619.971 333.091 609.233 330.347 599.032C327.409 588.107 327.189 566.474 329.906 555.532C332.902 543.469 340.364 529.316 348.887 519.532C358.923 508.012 367.284 501.811 385.171 492.621C401.256 484.357 412.501 477.349 416.468 473.118C420.678 468.627 422.285 469.602 423.092 477.135C423.994 485.557 423.174 493.412 420.042 506.346C418.668 512.018 417.544 516.989 417.544 517.391C417.544 519.319 455.537 513.834 466.019 510.393C469.629 509.207 472.857 508.512 473.192 508.847C474.179 509.834 471.655 518.422 468.144 526.022C463.098 536.943 455.891 547.304 447.565 555.604C440.896 562.252 438.389 563.943 427.007 569.464C419.877 572.922 410.344 577.553 405.822 579.754C394.403 585.312 387.437 591.732 378.544 604.892C374.419 610.996 369.143 617.913 366.82 620.262C364.497 622.61 362.925 624.532 363.327 624.532C363.729 624.532 368.105 623.415 373.051 622.05C377.997 620.685 388.344 618.409 396.044 616.992C403.744 615.576 413.194 613.795 417.044 613.035C423.17 611.826 469.332 604.926 487.544 602.497C500.025 600.832 513.765 598.644 514.149 598.261C514.983 597.426 521.269 576.534 520.676 576.568C520.328 576.587 517.344 577.255 514.044 578.052C504.784 580.288 485.38 579.702 482.786 577.108C482.121 576.442 489.968 560.159 498.004 545.532C508.52 526.392 509.927 523.896 514.252 516.704C532.3 486.696 551.078 471.003 580.597 461.26C604.92 453.231 648.727 449.104 667.729 453.052C671.752 453.887 677.572 455.834 680.661 457.377L686.278 460.182L688.559 457.812C692.039 454.197 700.417 448.934 706.544 446.514C716.989 442.389 723.476 440.774 745.031 436.93L766.668 433.072L762.856 431.316C720.017 411.571 652.12 392.093 594.544 383.032C588.769 382.123 579.094 380.535 573.044 379.502C566.994 378.47 553.494 376.465 543.044 375.047C532.594 373.628 519.319 371.821 513.544 371.03C473.441 365.537 470.605 365.318 462.65 367.087C451 369.679 437.627 374.904 417.964 384.545L399.863 393.42L398.652 402.226C391.707 452.765 379.302 477.324 342.933 512.546C328.274 526.743 319.357 533.908 307.332 541.15C291.863 550.468 274.216 562.24 266.044 568.694C259.946 573.509 252.792 577.304 247.891 578.322L244.23 579.083L249.637 583.544ZM250.417 575.556C254.33 574.448 256.234 573.271 266.917 565.358C277.129 557.793 294.69 546.201 305.995 539.564C315.543 533.957 318.172 531.999 330.881 521.032C340.066 513.105 356.907 496.035 361.465 490.032C383.775 460.646 389.557 446.466 396.016 405.293C396.856 399.936 397.544 395.393 397.544 395.197C397.544 395.001 392.256 396.957 385.794 399.544C379.332 402.131 368.352 405.775 361.396 407.64L348.747 411.032L347.702 419.127C344.724 442.181 335.735 464.893 318.804 492.143C308.941 508.017 302.036 517.286 293.619 525.951C280.462 539.495 276.075 544.499 266.419 556.978C260.692 564.379 255.483 569.858 250.261 573.975L247.044 576.511L250.417 575.556ZM280.924 416.385L305.303 416.032L310.174 411.508C312.852 409.02 321.96 401.82 330.413 395.508L345.781 384.032L345.029 377.032C344.615 373.182 343.999 364.669 343.66 358.114L343.044 346.195L328.078 342.888C319.847 341.069 312.545 339.363 311.851 339.096C310.357 338.523 308.011 341.318 293.86 360.532C287.986 368.507 282.916 375.257 282.593 375.532C282.269 375.807 278.158 381.207 273.456 387.532C265.215 398.62 256.544 412.962 256.544 415.508C256.544 416.456 262.113 416.657 280.924 416.385ZM312.679 414.987C314.53 414.736 319.644 414.078 324.044 413.525C328.444 412.972 335.306 411.802 339.294 410.925L346.544 409.331V398.598C346.544 392.695 346.279 387.6 345.955 387.276C345.43 386.751 341.564 389.545 319.044 406.728C315.744 409.246 312.205 412.237 311.179 413.375C309.326 415.431 309.335 415.441 312.679 414.987ZM312.795 336.988C320.019 339.257 339.116 343.532 342.027 343.532C343.253 343.532 343.543 342.047 343.536 335.782C343.522 320.807 340.658 309.964 335.895 306.842C333.807 305.474 333.29 305.469 331.272 306.791C330.022 307.61 327.696 310.699 326.103 313.656C324.51 316.613 320.583 322.984 317.376 327.814C313.634 333.449 311.993 336.736 312.795 336.988ZM328.307 206.91C337.768 211.802 355.082 213.263 366.044 210.093C372.509 208.224 380.793 203.877 385.606 199.826C389.648 196.426 398.04 184.996 404.545 174.032C416.868 153.265 419.037 149.778 422.787 144.705C424.952 141.776 426.501 139.156 426.228 138.883C425.065 137.719 404.993 138.62 399.319 140.09C385.1 143.775 372.023 152.884 355.776 170.421C349.873 176.792 341.385 185.611 336.913 190.018C330.062 196.77 325.544 202.707 325.544 204.957C325.544 205.245 326.787 206.124 328.307 206.91ZM328.932 194.532C329.692 194.532 347.761 176.313 355.08 168.167C369.659 151.938 386.905 140.401 401.044 137.418C404.344 136.722 411.994 136.203 418.044 136.265L429.044 136.377L435.013 130.987L440.983 125.597L438.949 122.814C434.991 117.401 430.433 116.028 416.544 116.068C402.449 116.108 396.244 117.321 385.841 122.07C368.055 130.19 359.634 139.914 339.542 175.532C336.595 180.757 333.206 186.382 332.012 188.032C329.959 190.868 328.222 194.532 328.932 194.532ZM330.657 589C331.82 596.984 336.029 611.404 339.349 618.777L342.044 624.762L342.197 611.842C342.455 590.078 346.455 574.65 356.115 558.171C361.365 549.215 371.249 538.761 380.044 532.861C387.33 527.975 400.615 521.896 408.89 519.663L414.992 518.016L417.377 509.024C419.133 502.403 419.894 496.34 420.263 486.032L420.764 472.032L417.404 475.144C411.89 480.251 402.954 485.761 386.281 494.332C377.611 498.789 367.936 504.442 364.781 506.895C338.397 527.404 326.022 557.179 330.657 589ZM331.794 211.956C340.955 217.944 352.922 220.952 364.919 220.282C381.994 219.33 389.665 214.552 412.68 190.538C431.909 170.475 439.454 163.878 448.778 158.978C456.59 154.873 456.857 153.612 451.154 147.759C447.823 144.341 436.36 139.592 431.345 139.553C427.995 139.527 423.643 145.42 411.053 167.032C392.869 198.246 383.634 207.641 366.9 211.95C358.246 214.178 343.318 214.029 335.633 211.637C329.069 209.594 328.28 209.66 331.794 211.956ZM344.323 624.282C344.546 627.095 345.132 628.532 346.057 628.532C348.465 628.532 358.027 618.261 360.436 613.086C361.702 610.366 364.062 602.268 365.681 595.089C370.479 573.809 373.485 568.692 393.195 548.247C401.629 539.499 407.775 532.156 410.015 528.151C411.956 524.68 413.544 521.582 413.544 521.267C413.544 519.039 391.757 527.91 382.625 533.856C363.899 546.05 351.12 565.613 346.143 589.705C344.654 596.914 343.658 615.849 344.323 624.282ZM345.132 358.032C345.283 359.132 345.973 364.878 346.668 370.801C347.362 376.724 348.351 381.43 348.865 381.258C350.981 380.553 383.305 353.986 382.701 353.449C382.173 352.981 371.814 351.2 346.171 347.169C345.302 347.032 344.614 354.23 345.132 358.032ZM352.294 408.109C359.09 406.94 384.477 398.254 391.753 394.609L398.894 391.032L402.656 377.532C404.725 370.107 406.558 362.47 406.731 360.561L407.044 357.091L398.62 355.883C393.986 355.218 389.291 354.438 388.187 354.149C386.733 353.769 384.204 355.339 379.036 359.828C375.108 363.24 366.664 370.082 360.273 375.032L348.651 384.032L348.598 396.393L348.544 408.755L352.294 408.109ZM353.06 626.532C353.381 626.532 355.083 625.791 356.844 624.884C363.208 621.608 368.569 616.188 374.34 607.197C381.552 595.96 389.078 587.602 396.557 582.523C399.671 580.408 408.93 575.635 417.132 571.915C433.389 564.543 438.481 561.629 444.317 556.356C452.333 549.114 462.674 533.664 467.589 521.585C471.044 513.097 471.306 511.015 468.794 512.014C463.746 514.021 444.517 517.564 433.544 518.508C417.058 519.928 415.844 520.214 415.165 522.841C413.943 527.569 405.979 537.869 393.157 551.304C374.95 570.381 371.699 576.138 367.504 596.73C365.089 608.588 360.916 618.093 355.943 623.066C354.037 624.972 352.74 626.532 353.06 626.532ZM396.948 353.346C407.952 354.937 407.544 355.024 407.544 351.097C407.544 346.49 406.068 342.883 403.653 341.59C401.063 340.204 396.064 343.057 391.813 348.346L388.748 352.161L396.948 353.346ZM416.294 383.064C434.547 374.045 446.485 369.071 455.041 366.922C458.657 366.014 461.426 365.08 461.193 364.847C460.96 364.615 449.372 362.891 435.441 361.018C417.691 358.631 409.911 357.938 409.44 358.7C409.07 359.299 408.487 361.868 408.144 364.41C407.801 366.952 406.181 373.307 404.543 378.532C402.906 383.757 401.561 388.554 401.555 389.192C401.549 389.83 408.181 387.072 416.294 383.064ZM424.927 30.178C426.787 31.748 431.143 35.282 434.606 38.032C438.07 40.782 442.51 44.431 444.474 46.14C461.996 61.393 484.117 75.984 501.544 83.785C532.419 97.605 561.634 99.427 585.204 89.004C591.981 86.007 591.87 85.009 584.997 87.145C578.149 89.274 556.654 88.4441 547.544 85.6981C535.67 82.1191 531.103 80.346 524.544 76.769C508.285 67.904 496.303 58.6581 481.544 43.5881L473.044 34.9091L464.768 33.665C460.217 32.981 454.367 31.7521 451.768 30.9351C433.414 25.1631 425.388 23.271 423.055 24.166C420.653 25.088 421.28 27.102 424.927 30.178ZM426.693 312.532C427.994 321.902 434.141 334.209 441.234 341.646C447.313 348.019 457.732 356.132 463.544 359.018L467.044 360.756L462.932 356.394C452.185 344.995 444.777 332.185 442.534 321.124C438.808 302.745 443.901 281.238 455.77 265.227C460.694 258.585 461.037 257.714 462.7 247.635C464.766 235.117 465.056 219.086 463.279 215.628C462.6 214.306 460.827 212.322 459.34 211.218C456.106 208.817 454.135 209.896 452.634 214.89C448.102 229.977 437.711 258.622 432.994 269.032C426.246 283.927 424.447 296.348 426.693 312.532ZM443.14 312.532C446.15 331.064 452.671 343.398 466.845 357.37L473.275 363.707L476.885 360.537C481.121 356.818 482.534 352.562 482.531 343.532C482.528 334.302 480.317 327.619 470.291 306.532C462.131 289.368 460.26 283.142 460.146 272.765L460.044 263.498L457.22 266.765C449.259 275.974 441.369 301.622 443.14 312.532ZM463.049 281.032C465.007 289.761 467.577 296.475 474.34 310.532C482.955 328.438 484.045 332.203 484.039 344.032C484.034 351.908 483.634 354.775 482.152 357.532L480.27 361.032L482.294 359.229C483.408 358.238 485.588 354.638 487.139 351.229C489.726 345.544 489.955 344.081 489.903 333.532C489.865 325.857 489.06 317.874 487.484 309.532C485.876 301.016 485.134 293.526 485.157 286.032C485.196 273.69 486.639 268.339 493.791 254.032C500.826 239.96 500.781 240.333 496.65 230.1C494.667 225.187 492.594 221.039 492.044 220.881C491.494 220.723 487.232 226.264 482.573 233.195C477.914 240.125 471.555 248.92 468.441 252.74C461.185 261.644 460.043 267.633 463.049 281.032ZM484.163 198.686C488.354 207.126 491.961 214.226 492.178 214.464C492.396 214.701 494.097 213.419 495.959 211.614C499.823 207.87 502.211 208.022 505.518 212.226C508.815 216.418 508.05 227.263 503.817 236.319C502.32 239.523 502.414 239.942 507.537 252.819C519.837 283.736 534.439 306.699 553.177 324.589C565.829 336.669 582.213 346.479 595.544 349.957C603.341 351.991 620.343 353.105 627.144 352.028L632.044 351.251L624.141 349.875C614.201 348.143 600.301 342.032 591.664 335.595C577.296 324.888 566.374 311.141 557.061 292.04C546.369 270.112 541.074 250.34 537.782 220.046L536.044 204.06L526.2 196.401C520.786 192.188 512.156 186.629 507.023 184.047C498.921 179.972 496.638 179.281 489.725 178.807C480.113 178.148 476.544 178.865 476.544 181.455C476.544 182.492 479.973 190.246 484.163 198.686ZM488.294 47.278C503.472 61.688 514.452 69.564 529.044 76.509C539.641 81.553 544.869 83.239 555.866 85.16C566.859 87.08 579.274 86.5061 590.921 83.5391C595.253 82.4351 598.965 81.532 599.171 81.532C599.376 81.532 599.544 81.144 599.544 80.671C599.544 80.197 596.057 78.3481 591.794 76.5621C578.774 71.1071 566.383 63.3661 554.883 53.5051C550.271 49.5501 539.526 43.998 532.565 41.973C525.505 39.919 510.265 37.646 496.149 36.541C480.671 35.33 477.544 35.2901 477.544 36.3021C477.544 36.7261 482.381 41.665 488.294 47.278ZM480.013 640.532C480.82 640.532 481.265 639.969 481.001 639.28C480.436 637.808 482.661 636.296 489.821 633.286C494.744 631.216 496.997 631.057 529.044 630.513C559.388 629.998 564.818 629.649 579.544 627.266C627.336 619.531 656.634 618.82 686.044 624.679C697.863 627.033 718.705 634.012 727.339 638.505C730.708 640.259 734.248 641.543 735.205 641.359C737.654 640.887 719.973 632.348 709.044 628.725C697.609 624.934 679.764 620.944 667.544 619.446C657.159 618.172 621.413 618.795 611.044 620.43C562.22 628.128 555.96 628.75 532.445 628.242C502.963 627.604 495.716 628.348 486.039 633.002C480.483 635.674 478.544 637.115 478.544 638.57C478.544 639.649 479.205 640.532 480.013 640.532ZM479.845 364.532C480.627 364.532 528.321 370.889 546.544 373.422C605.191 381.574 655.08 391.802 695.07 403.87C706.355 407.276 734.093 416.91 739.936 419.453C745.058 421.683 747.4 421.637 743.38 419.386C740.678 417.874 740.314 417.66 729.314 411.102C693.817 389.943 679.16 380.466 646.703 357.69L638.363 351.837L632.703 353.217C623.744 355.402 608.533 355.143 598.044 352.627C561.255 343.801 526.875 307.65 506.939 256.83C504.394 250.341 501.999 244.69 501.618 244.273C500.658 243.22 490.729 264.705 488.79 272.032C486.593 280.335 486.857 292.604 489.573 308.532C494.215 335.756 492.458 351.671 483.859 360.27C481.514 362.614 479.709 364.532 479.845 364.532ZM491.161 577.081C499.112 577.933 511.287 577.11 517.407 575.308L521.77 574.023L527.204 557.528C536.46 529.433 545.351 513.753 559.999 499.691C573.777 486.463 590.19 477.184 616.044 468.005C636.953 460.583 651.053 457.463 664.544 457.274L676.044 457.114L669.044 455.404C659.919 453.176 640.308 453.043 622.544 455.089C570.166 461.122 544.391 475.104 520.694 510.338C513.934 520.388 491.35 561.445 484.742 575.697C484.573 576.062 487.461 576.685 491.161 577.081ZM497.378 226.78C499.342 231.591 501.24 235.191 501.596 234.78C503.436 232.654 505.544 224.863 505.544 220.186C505.544 215.933 505.085 214.449 503.23 212.706C501.957 211.51 500.581 210.532 500.173 210.532C499.284 210.532 493.488 216.752 493.675 217.505C493.748 217.795 495.414 221.968 497.378 226.78ZM517.685 614.87C533.711 613.03 543.628 609.078 560.277 597.897C566.517 593.706 571.411 590.066 571.152 589.807C570.893 589.548 566.488 590.26 561.363 591.388C543.8 595.255 528.042 598.488 523.544 599.147C517.11 600.09 515.887 600.984 515.204 605.246C514.87 607.328 514.311 610.458 513.962 612.201L513.326 615.371L517.685 614.87ZM518.644 597.532C521.743 597.532 549.879 592.016 562.772 588.881L577.499 585.3L584.772 578.705C597.811 566.88 626.954 537.62 631.53 531.757C640.063 520.825 655.294 499.393 660.044 491.634C661.727 488.885 666.726 482.307 671.368 476.734C681.003 465.166 674.107 470.636 646.589 496.387C623.412 518.077 617.244 523.147 600.472 534.294C572.795 552.688 548.889 566.118 532.273 572.607C523.777 575.924 523.469 576.158 522.458 580.032C521.884 582.232 520.543 586.411 519.479 589.32C517.281 595.325 517.057 597.532 518.644 597.532ZM525.825 572.529C529.418 572.518 554.391 560.575 567.544 552.576C571.119 550.402 575.394 547.861 577.044 546.929C582.851 543.652 609.114 526.208 615.044 521.69C622.557 515.965 625.356 513.486 638.482 500.923C655.071 485.046 665.39 475.881 674.044 469.336C678.444 466.009 682.172 462.957 682.329 462.553C683.008 460.809 670.143 459.254 659.744 459.824C633.835 461.246 590.385 477.628 569.927 493.69C548.838 510.248 538.407 528.26 524.996 571.282C524.782 571.969 525.155 572.53 525.825 572.529ZM533.118 168.032C535.006 177.382 537.001 189.082 537.55 194.032C538.478 202.386 538.783 203.233 541.797 205.838C545.547 209.08 561.066 219.471 570.544 225.087C596.527 240.483 607 248.718 615.2 260.203C627.182 276.982 637.095 307.832 639.2 334.89L639.911 344.032L641.264 339.532C644.536 328.657 645.738 315.415 645.212 296.032C644.652 275.411 643.29 266.985 638.528 254.687C634.024 243.055 627.252 234.103 605.504 211.032C593.782 198.597 587.701 191.08 571.53 169.032C560.363 153.807 545.928 143.194 534.555 141.847L529.544 141.253L529.614 146.143C529.653 148.832 531.229 158.682 533.118 168.032ZM539.657 219.032C543.786 257.837 553.984 287.96 571.142 312.032C576.175 319.092 587.968 330.759 595.044 335.677C604.911 342.534 620.423 347.936 632.544 348.735L637.044 349.032L637.384 344.032C638.255 331.238 632.417 301.932 625.63 285.032C617.789 265.504 609.397 253.892 595.912 243.908C589.493 239.156 568.027 225.532 566.958 225.532C566.721 225.532 560.23 221.286 552.535 216.096C540.589 208.039 538.563 206.979 538.675 208.846C538.747 210.048 539.189 214.632 539.657 219.032ZM593.794 581.414C605.204 578.455 618.206 575.344 656.044 566.52C667.594 563.826 684.019 560.431 692.544 558.976C701.069 557.521 708.269 556.098 708.544 555.814C708.819 555.53 708.196 554.788 707.16 554.165C687.323 542.241 680.416 535.113 674.821 520.792C672.567 515.025 672.178 512.49 672.167 503.532C672.156 494.316 672.558 491.809 675.458 483.032C677.275 477.532 679.226 472.459 679.795 471.758C680.364 471.057 680.612 470.267 680.348 470.002C679.559 469.213 668.258 483.201 661.338 493.532C648.69 512.414 637.29 528.261 631.126 535.532C627.147 540.225 594.395 572.845 587.794 578.689C584.906 581.246 582.544 583.561 582.544 583.834C582.544 584.107 587.607 583.018 593.794 581.414ZM629.044 640.413C631.244 640.473 639.119 639.627 646.544 638.532C664.293 635.915 683.219 635.915 700.544 638.532C707.825 639.632 715.416 640.494 717.413 640.447C720.773 640.368 720.633 640.26 715.544 638.997C693.815 633.604 658.829 633.096 636.544 637.85C628.175 639.635 626.133 640.332 629.044 640.413ZM659.895 266.532C660.162 266.532 661.424 264.844 662.698 262.782C667.684 254.713 681.149 237.649 688.41 230.197C710.141 207.894 730.312 199.185 756.356 200.861C761.685 201.204 767.779 201.979 769.899 202.584C773.257 203.542 774.03 203.432 775.899 201.731C778.777 199.112 784.079 195.897 795.989 189.549C809.132 182.544 814.846 178.327 819.542 172.17C821.677 169.37 823.339 167.008 823.234 166.921C823.13 166.834 819.219 167.45 814.544 168.29C808.058 169.455 799.172 169.785 777.044 169.68C739.359 169.501 729.695 170.75 714.647 177.741C698.954 185.033 686.907 197.219 677.782 215.032C671.33 227.628 666.316 240.81 662.568 255.032C661.408 259.432 660.223 263.82 659.934 264.782C659.645 265.744 659.628 266.532 659.895 266.532ZM661.982 249.373C672.149 213.631 686.761 191.421 708.573 178.554C723.92 169.5 735.799 167.52 774.634 167.544C795.935 167.558 806.663 167.15 813.544 166.065C824.68 164.31 826.544 164.219 826.544 165.433C826.544 167.49 817.093 178.693 812.534 182.039C809.83 184.024 801.413 189.04 793.831 193.186C786.248 197.331 779.247 201.433 778.273 202.302C776.629 203.767 777.633 204.303 792.273 209.763C800.947 212.998 810.519 216.537 813.544 217.626C820.79 220.236 833.057 223.449 843.343 225.432C847.907 226.312 851.732 227.466 851.843 227.996C852.194 229.679 840.292 237.174 833.678 239.434C830.177 240.63 821.177 242.514 813.678 243.619C806.179 244.724 798.469 246.115 796.544 246.71C789.727 248.815 778.923 254.39 769.544 260.642C753.446 271.373 744.377 276.42 736.045 279.283C728.786 281.777 726.745 282.03 714.044 282.007C700.721 281.984 699.132 281.754 681.183 277.257C670.809 274.658 661.901 272.532 661.387 272.532C659.778 272.532 661.594 279.513 666.718 293.032C685.301 342.052 706.645 377.674 733.53 404.535C747.459 418.451 762.996 430.532 766.964 430.532C767.124 430.532 767.53 422.77 767.868 413.282C768.536 394.519 769.125 390.914 775.918 364.032C784.862 328.637 793.026 311.345 809.762 292.354C824.115 276.065 843.46 261.509 868.544 248.122C875.419 244.454 884.869 239.086 889.544 236.193C909.691 223.73 912.286 222.231 916.831 220.43C922.645 218.125 926.372 218.023 929.321 220.089C932.363 222.219 932.138 225.054 928.108 235.367C924.551 244.471 916.544 271.052 916.544 273.758C916.544 275.063 917.798 274.912 924.794 272.768C929.332 271.377 933.401 269.926 933.837 269.542C934.274 269.159 936.152 263.037 938.012 255.939C942.522 238.72 945.199 230.89 955.582 204.532C957.857 198.757 960.692 191.403 961.881 188.189L964.044 182.346L959.58 178.363C951.973 171.576 947.192 170.22 925.044 168.565C897.77 166.528 883.624 160.99 868.411 146.395C860.947 139.235 855.263 131.75 850.63 122.978C848.903 119.708 846.359 115.015 844.977 112.551C840.332 104.263 841.86 103.084 858.749 101.921C864.136 101.55 868.544 101.054 868.544 100.82C868.544 100.586 867.401 95.886 866.004 90.376C863.456 80.322 863.476 76.532 866.076 76.532C866.844 76.532 872.013 77.412 877.561 78.488C908.582 84.501 930.287 95.846 940.091 111.173C947.022 122.007 948.34 125.433 960.72 164.775C963.098 172.334 965.269 178.517 965.544 178.516C965.819 178.514 966.885 176.154 967.912 173.272C970.679 165.511 971.735 151.421 971.191 129.532C970.676 108.849 968.927 96.875 964.011 80.389C961.451 71.806 951.139 49.532 949.724 49.532C949.289 49.532 944.979 51.126 940.148 53.074C930.532 56.952 915.74 60.706 902.625 62.597C889.551 64.483 878.778 63.316 856.032 57.551C833.529 51.847 824.124 50.708 813.975 52.459C806.967 53.668 786.744 59.104 776.576 62.512C760.298 67.967 740.543 69.237 729.553 65.535C726.132 64.382 722.343 62.791 721.134 61.999C719.056 60.637 718.741 60.818 715.393 65.295C693.258 94.902 680.326 129.739 668.161 192.532C662.371 222.417 660.636 234.1 660.016 247.378L659.518 258.032L661.982 249.373ZM670.794 267.083C717.065 263.398 730.822 256.737 753.505 227.032C758.124 220.982 763.848 213.846 766.224 211.174C768.6 208.502 770.544 205.955 770.544 205.514C770.544 203.873 755.998 202.266 746.544 202.863C724.737 204.24 708.922 212.279 689.829 231.695C683.083 238.554 662.594 264.996 662.559 266.886C662.551 267.356 666.256 267.444 670.794 267.083ZM670.597 272.229C714.779 285.261 731.884 283.289 764.688 261.382C784.568 248.106 790.798 245.393 808.044 242.501C831.196 238.618 838.474 236.426 845.266 231.295L848.487 228.86L840.266 227.119C828.74 224.677 812.597 219.629 795.044 212.977C773.78 204.919 774.919 205.145 771.662 208.334C768.264 211.66 757.359 225.01 751.601 232.891C735.294 255.21 717.474 264.613 685.794 267.617C679.332 268.23 671.593 269.024 668.597 269.382L663.15 270.032L670.597 272.229ZM674.172 510.532C675.148 515.612 678.62 525.142 680.812 528.763C684.774 535.305 693.069 542.851 703.265 549.188C712.803 555.115 713.335 555.313 717.607 554.526C720.047 554.076 727.354 553.145 733.845 552.457L745.646 551.207L745.345 548.62C745.064 546.203 744.252 545.824 733.044 542.886C717.443 538.797 713.571 537.327 707.265 533.102C694.857 524.789 688.457 515.908 685.235 502.532C682.909 492.88 682.298 483.884 683.438 476.07C683.996 472.241 684.254 468.909 684.012 468.666C683.283 467.938 678.662 479.134 676.512 486.837C674.47 494.152 673.3 505.998 674.172 510.532ZM687.066 502.42C690.613 515.099 698.655 525.604 710.083 532.487C714.979 535.437 726.469 539.214 741.736 542.892L744.428 543.541L742.12 536.786C739.097 527.938 735.436 520.469 731.834 515.802C726.676 509.119 721.015 500.25 716.025 491.032C705.947 472.417 700.23 465.644 692.884 463.615C686.607 461.882 686.165 462.991 685.839 481.28C685.631 492.981 685.947 498.417 687.066 502.42ZM695.066 459.23C702.256 459.56 709.989 464.346 723.007 476.522C729.586 482.676 739.125 490.835 744.204 494.652C749.283 498.47 755.747 504.167 758.568 507.312C765.163 514.666 782.102 539.949 783.875 545.085L785.237 549.032L791.641 549.254C817.393 550.148 838.205 552.877 862.544 558.553C895.654 566.274 927.666 577.7 957.399 592.409C963.095 595.227 967.833 597.532 967.928 597.532C968.023 597.532 948.06 577.394 923.564 552.782C867.59 496.539 851.451 482.316 820.044 461.546C804.624 451.349 777.031 436.81 771.348 435.888C767.697 435.295 740.408 439.378 726.903 442.538C715.161 445.285 705.302 448.927 698.625 452.983C690.328 458.023 689.778 458.988 695.066 459.23ZM697.32 463.414C702.298 465.514 708.409 473.026 714.974 485.114C718.235 491.119 723.41 499.777 726.474 504.355C737.965 521.525 741.704 528.253 744.196 536.246C746.151 542.517 747.267 544.625 748.901 545.136C750.08 545.506 753.294 546.8 756.044 548.013C760.467 549.965 762.284 550.166 771.794 549.762C780.223 549.404 782.544 548.997 782.544 547.879C782.544 545.232 778.347 538.1 768.512 524.032C758.184 509.258 754.327 505.078 743.127 496.516C733.679 489.293 732.251 488.078 723.595 479.886C708.857 465.938 701.404 460.985 696.254 461.718C694.304 461.995 694.429 462.194 697.32 463.414ZM720.093 560.667C726.346 565.405 732.448 571.453 737.633 578.05C740.434 581.615 743.32 584.532 744.046 584.532C746.012 584.532 750.277 579.022 751.056 575.478C751.806 572.061 751.255 568.034 748.82 559.154L747.209 553.276L740.126 553.918C728.894 554.936 716.541 556.78 716.58 557.434C716.6 557.763 718.181 559.218 720.093 560.667ZM748.277 549.282C748.516 549.969 750.136 550.514 751.877 550.492L755.044 550.452L752.234 548.929C749.122 547.241 747.617 547.376 748.277 549.282ZM771.403 556.782C779.458 562.015 781.78 561.601 783.163 554.687L783.794 551.532H774.669C769.65 551.532 765.563 551.87 765.587 552.282C765.611 552.694 768.228 554.719 771.403 556.782ZM774.732 431.198C781.911 430.354 789.902 427.539 802.044 421.577C815.728 414.858 825.568 408.079 839.89 395.503C866.896 371.79 887.684 343.526 901.981 311.079C906.737 300.287 912.545 283.078 912.544 279.782C912.544 277.896 910.919 278.182 896.409 282.618C875.424 289.034 856.2 298.069 841.544 308.405C827.805 318.093 811.124 337.106 801.513 354.032C795.348 364.889 785.45 383.932 782.084 391.413C778.646 399.056 771.8 420.091 770.038 428.433L769.319 431.834L774.732 431.198ZM773.874 406.956C780.409 387.883 796.763 356.145 809.209 338.383C829.124 309.963 861.316 289.423 902.912 278.597L913.781 275.769L916.607 264.9C918.162 258.923 921.294 248.632 923.567 242.032C925.84 235.432 928.185 228.587 928.778 226.822C931.354 219.147 923.708 218.654 910.728 225.658C906.502 227.938 902.369 230.353 901.544 231.023C898.804 233.25 875.147 247.217 868.544 250.507C861.722 253.905 846.501 263.132 840.546 267.479C804.321 293.92 788.388 319.498 776.439 370.391C771.573 391.118 770.502 397.477 769.935 409.032L769.394 420.032L773.874 406.956ZM790.051 442.017C804.067 449.115 805.955 450.214 823.242 461.341C834.917 468.855 835.745 469.456 850.525 481.133C868.986 495.718 878.055 504.085 906.734 532.992C917.079 543.42 925.544 551.648 925.544 551.277C925.544 550.906 924.899 548.674 924.11 546.317C915.893 521.771 912.438 488.962 914.445 454.541C915.584 435.009 918.016 411.696 920.967 392.032C922.718 380.365 925.527 356.93 925.522 354.032C925.52 352.434 924.689 352.937 921.392 356.532C893.897 386.514 871.595 403.546 840.178 418.554C820.205 428.096 807.505 431.78 787.317 433.886L776.27 435.038L790.051 442.017ZM786.544 432.131C788.469 431.825 793.644 431.074 798.044 430.463C802.444 429.851 811.669 427.426 818.544 425.074C853.915 412.971 887.285 390.389 917.095 358.381C926.432 348.355 925.974 349.84 928.462 321.532C929.694 307.507 931.468 290.744 932.404 284.282C933.34 277.82 933.867 272.537 933.575 272.543C933.283 272.549 930.794 273.236 928.044 274.071C925.294 274.905 921.415 276.027 919.425 276.563C916.046 277.474 915.692 277.954 914.092 283.785C911.49 293.272 905.814 308.783 902.503 315.456C900.876 318.736 899.544 321.635 899.544 321.897C899.544 322.742 889.516 339.809 884.776 347.032C878.905 355.98 868.048 369.874 859.167 379.806C852.031 387.786 834.472 403.684 827.156 408.788C812.004 419.359 799.579 426.151 789.044 429.622C783.6 431.416 782.199 432.822 786.544 432.131ZM850.196 118.032C861.773 138.806 871.639 149.44 886.655 157.33C897.382 162.967 905.905 164.911 927.044 166.543C941.815 167.683 949.853 169.413 955.42 172.65C960.411 175.552 960.389 174.16 955.387 170.514C948.811 165.721 945.244 164.164 930.544 159.668C912.513 154.153 902.095 148.765 892.914 140.205C884.088 131.977 878.147 123.695 873.549 113.21C871.663 108.907 869.677 105.114 869.137 104.78C867.968 104.058 852.426 104.344 847.794 105.173C846.006 105.493 844.562 106.267 844.583 106.893C844.605 107.52 847.13 112.532 850.196 118.032ZM868.187 90.528C869.573 95.75 871.105 100.503 871.591 101.089C872.078 101.675 874.629 102.256 877.26 102.38C884.996 102.743 899.269 105.458 905.377 107.729C911.387 109.962 920.877 115.83 925.749 120.325C931.935 126.032 943.055 142.635 956.886 166.812C959.09 170.666 960.898 172.724 960.153 170.532C959.872 169.707 956.877 160.032 953.497 149.032C943.722 117.224 937.552 106.874 922.226 96.5781C917.096 93.1331 902.068 86.685 893.326 84.178C881.509 80.79 865.462 78.535 865.606 80.282C865.639 80.695 866.801 85.305 868.187 90.528ZM875.386 112.564C879.858 123.042 887.676 133.421 897.498 141.92C902.756 146.469 916.248 153.151 925.605 155.841C936.753 159.046 948.461 163.273 951.294 165.115C952.531 165.92 953.544 166.356 953.544 166.084C953.544 165.812 951.519 162.164 949.044 157.978C946.569 153.792 944.544 150.142 944.544 149.868C944.544 149.594 941.525 144.793 937.835 139.201C922.391 115.795 907.971 107.233 880.011 104.87C875.798 104.514 872.556 104.629 872.571 105.135C872.586 105.628 873.853 108.971 875.386 112.564ZM924.136 514.032C924.354 516.232 925.027 523.207 925.632 529.532C926.237 535.857 927.072 541.643 927.488 542.389C927.903 543.135 928.558 539.176 928.943 533.59C931.129 501.855 940.81 470.851 953.686 454.352C959.305 447.152 970.725 436.261 978.08 431.088C984.537 426.546 1001.28 417.631 1006.16 416.131C1009.7 415.045 1013.04 401.534 1013.04 388.334C1013.04 373.711 1012.44 373.331 1003.6 382.338C999.741 386.264 995.054 390.502 993.181 391.754C991.309 393.007 986.462 396.322 982.411 399.122C978.359 401.921 973.346 405.373 971.271 406.792C959.207 415.046 946.065 429.188 938.318 442.252C933.132 450.998 927.234 467.374 925.611 477.532C924.455 484.766 923.523 507.829 924.136 514.032ZM928.952 343.532C930.181 343.532 939.817 327.881 948.037 312.532C957.119 295.574 964.528 283.303 970.273 275.705C979.313 263.749 972.782 260.424 952.042 266.425C936.373 270.958 936.861 270.651 935.66 276.726C934.45 282.848 932.052 304.414 930.568 322.532C930.005 329.407 929.291 336.945 928.983 339.282C928.674 341.619 928.66 343.532 928.952 343.532ZM930.132 553.532C930.476 553.532 933.747 552.115 937.401 550.383C954.532 542.261 965.251 531.852 973.731 515.104C977.863 506.944 990.661 473.261 997.696 452.032C1001.07 441.84 1007.54 419.507 1007.54 418.041C1007.54 416.984 991.524 424.999 983.609 430.016C950.587 450.945 933.653 485.289 931.057 536.6C930.711 543.438 930.22 550.045 929.967 551.282C929.713 552.519 929.788 553.532 930.132 553.532ZM937.189 553.479C939.518 553.586 952.218 549.213 957.544 546.469C973.661 538.167 980.325 530.446 1004.1 492.532C1023.23 462.025 1042.21 426.12 1046.05 413.197C1047.71 407.605 1048.04 398.958 1046.63 398.085C1046.13 397.774 1043.76 399.004 1041.38 400.818C1035.59 405.224 1027.56 409.623 1019.04 413.058C1015.19 414.61 1011.49 416.371 1010.81 416.971C1010.14 417.57 1008.42 422.779 1006.99 428.546C1003.93 440.933 994.07 469.696 981.727 502.264C972.391 526.899 960.403 541.132 940.544 551.155C938.069 552.405 936.559 553.45 937.189 553.479ZM946.794 40.8121C948.582 43.3971 950.294 45.517 950.6 45.522C952.035 45.548 972.429 32.75 971.86 32.181C971.503 31.824 969.589 31.532 967.607 31.532C965.625 31.532 960.756 30.632 956.787 29.532C952.817 28.432 949.123 27.532 948.577 27.532C947.784 27.532 943.544 34.483 943.544 35.782C943.544 35.964 945.006 38.2271 946.794 40.8121ZM1014.61 522.032C1015.69 524.232 1019.72 530.307 1023.56 535.532C1027.4 540.757 1033.03 548.407 1036.07 552.532C1043.67 562.867 1049.02 574.381 1057.89 599.532C1067.34 626.304 1073.69 640.906 1076.09 641.386C1077.67 641.701 1077.61 641.316 1075.58 637.886C1073.44 634.276 1066.68 618.735 1064.34 612.032C1047.92 565.054 1047.56 564.32 1030.03 541.032C1022.35 530.822 1015.54 520.272 1015.54 518.568C1015.54 516.595 1026.19 517.858 1036.54 521.058C1046.1 524.013 1057.61 527.027 1074.54 531.015C1080.87 532.504 1086.58 534.242 1087.23 534.877C1088.67 536.291 1092.07 560.065 1093.54 579.032C1095 597.833 1097.96 615.214 1102.11 629.327C1104 635.746 1105.54 641.118 1105.54 641.265C1105.54 641.412 1106.18 641.532 1106.95 641.532C1108.08 641.532 1107.97 640.533 1106.39 636.358C1101.34 623.076 1097.33 600.718 1095.03 573.032C1094.17 562.582 1092.79 550.031 1091.98 545.14C1091.16 540.249 1090.73 536.014 1091.01 535.73C1091.97 534.776 1099.96 537.689 1108.62 542.145C1118.21 547.076 1127.08 554.899 1132.86 563.519C1135.58 567.566 1136.54 568.445 1136.54 566.868C1136.54 565.692 1134.55 562.098 1132.1 558.881C1123.94 548.118 1113.13 540.649 1097.63 535.064L1089.22 532.032L1086.97 525.532C1085.74 521.957 1083.77 517.109 1082.6 514.76C1079.75 509.024 1071.54 487.002 1071.54 485.071C1071.54 484.193 1072.41 483.532 1073.57 483.532C1076.12 483.532 1089.46 490.211 1098.58 496.055C1107.1 501.519 1135.54 515.866 1136.32 515.092C1137.1 514.312 1137.65 514.641 1121.18 506.117C1106.03 498.281 1104.81 497.592 1096.04 491.984C1085.29 485.1 1075.5 481.005 1070.79 481.421C1067.75 481.691 1070.61 491.569 1081.05 516.842C1084.19 524.438 1086.59 530.821 1086.38 531.026C1085.7 531.714 1056.2 524.678 1041.04 520.209C1023.53 515.045 1016.16 513.777 1014.01 515.557C1012.2 517.066 1012.2 517.132 1014.61 522.032Z" fill="black"/>
</svg>
